<svg width="80" height="80" viewBox="0 0 80 80" fill="none" xmlns="http://www.w3.org/2000/svg">
<path d="M76 0H4C1.79086 0 0 1.79086 0 4V76C0 78.2091 1.79086 80 4 80H76C78.2091 80 80 78.2091 80 76V4C80 1.79086 78.2091 0 76 0Z" fill="#04D361"/>
<path d="M23.1738 26.2522H33.1738C34.9419 26.2522 36.6376 26.9546 37.8879 28.2048C39.1381 29.4551 39.8405 31.1508 39.8405 32.9189V56.2522C39.8405 54.9261 39.3137 53.6543 38.376 52.7167C37.4383 51.779 36.1666 51.2522 34.8405 51.2522H23.1738V26.2522Z" stroke="white" stroke-width="3" stroke-linecap="round" stroke-linejoin="round"/>
<path d="M56.5065 26.2522H46.5065C44.7384 26.2522 43.0427 26.9546 41.7925 28.2048C40.5422 29.4551 39.8398 31.1508 39.8398 32.9189V56.2522C39.8398 54.9261 40.3666 53.6543 41.3043 52.7167C42.242 51.779 43.5138 51.2522 44.8398 51.2522H56.5065V26.2522Z" stroke="white" stroke-width="3" stroke-linecap="round" stroke-linejoin="round"/>
</svg>
