<svg xmlns="http://www.w3.org/2000/svg" width="40.987" height="40.708" viewBox="0 0 40.987 40.708"><defs><style>.a{fill:#04d361;}</style></defs><g transform="translate(-786.592 -417.2)"><path class="a" d="M1048.3,1482.737a2.82,2.82,0,0,1-1.367-.355l-8.877-4.838a1.287,1.287,0,0,0-1.208,0l-8.875,4.838a2.838,2.838,0,0,1-1.353.344,2.912,2.912,0,0,1-2.27-1.085,3.066,3.066,0,0,1-.642-2.471l1.695-10.246a1.378,1.378,0,0,0-.375-1.191l-7.181-7.256a3.109,3.109,0,0,1-.743-3.123,2.953,2.953,0,0,1,2.374-2.074l9.923-1.495a1.3,1.3,0,0,0,.977-.736l4.438-9.322a2.894,2.894,0,0,1,5.271,0l4.437,9.321a1.3,1.3,0,0,0,.977.736l9.924,1.495a2.952,2.952,0,0,1,2.373,2.074,3.106,3.106,0,0,1-.743,3.123l-7.18,7.257a1.376,1.376,0,0,0-.374,1.191l1.695,10.246a3.062,3.062,0,0,1-.641,2.471A2.908,2.908,0,0,1,1048.3,1482.737Zm-10.848-14.094a.44.44,0,0,1,.209.052l3.073,1.675a.985.985,0,0,0,.473.122,1.009,1.009,0,0,0,.781-.379,1.063,1.063,0,0,0,.221-.856l-.587-3.547a.476.476,0,0,1,.13-.413l2.486-2.512a1.076,1.076,0,0,0,.257-1.082,1.022,1.022,0,0,0-.822-.718l-3.435-.517a.45.45,0,0,1-.338-.255l-1.536-3.227a1,1,0,0,0-1.825,0l-1.536,3.227a.45.45,0,0,1-.338.255l-3.436.517a1.024,1.024,0,0,0-.822.718,1.077,1.077,0,0,0,.257,1.082l2.486,2.512a.476.476,0,0,1,.13.413l-.586,3.547a1.063,1.063,0,0,0,.221.856,1.011,1.011,0,0,0,.786.375.98.98,0,0,0,.468-.119l3.073-1.675A.432.432,0,0,1,1037.455,1468.643Z" transform="translate(-230.37 -1024.83)"/></g></svg>
